<svg width="24" height="24" viewBox="0 0 24 24" fill="none" xmlns="http://www.w3.org/2000/svg">
    <path d="M15.75 7.5H12.75V4.5H11.25V7.5H8.25V9H11.25V12H12.75V9H15.75V7.5Z" fill="#A8C1D3"/>
    <path d="M21.0002 17.9998H13.0002V15.311H17.2502C17.6478 15.3104 18.219 15.0922 18.5002 14.811C18.7814 14.5299 18.9996 14.2087 19.0002 13.811V8.55828V3.31104C18.9998 2.91333 18.7814 2.09225 18.5002 1.81104C18.219 1.52982 17.3979 1.31143 17.0002 1.31104H7.0002C6.6025 1.31143 5.78142 1.52982 5.5002 1.81104C5.21898 2.09225 5.0006 2.91333 5.0002 3.31104V13.811C5.0006 14.2087 5.21898 14.5298 5.5002 14.811C5.78142 15.0923 6.3525 15.3106 6.7502 15.311H11.0002V17.9998H3.00049C2.60266 17.9998 1.78179 18.2185 1.50049 18.4998C1.21918 18.7811 1.00049 19.6019 1.00049 19.9998V22.811H3.0002V19.9998H11.0002V22.811H13.0002V19.9998H21.0002V22.811H23.0005V19.9998C23.0005 19.6019 22.7818 18.7811 22.5005 18.4998C22.2192 18.2185 21.398 17.9998 21.0002 17.9998ZM7.0002 3.31104H17.0002V13.311H7.0002V3.31104Z" fill="#A8C1D3"/>
    </svg>
    