<svg width="24" height="25" viewBox="0 0 24 25" fill="none" xmlns="http://www.w3.org/2000/svg">
    <g clip-path="url(#clip0_1200_1380)">
    <path d="M4.998 1.53027V0.530273C4.44572 0.530273 3.998 0.977989 3.998 1.53027L4.998 1.53027ZM19.5 1.53027L20.2071 0.823167L19.9142 0.530273H19.5V1.53027ZM23 5.03027H24V4.61606L23.7071 4.32317L23 5.03027ZM23 23.5303V24.5303H24V23.5303H23ZM18 6.53027H17V7.53027H18V6.53027ZM5.998 9.53027V1.53027H3.998V9.53027H5.998ZM4.998 2.53027H19.5V0.530273H4.998V2.53027ZM18.7929 2.23738L22.2929 5.73738L23.7071 4.32317L20.2071 0.823167L18.7929 2.23738ZM22 5.03027V23.5303H24V5.03027H22ZM23 22.5303H4V24.5303H23V22.5303ZM17 1.53027V6.53027H19V1.53027H17ZM18 7.53027H23V5.53027H18V7.53027Z" fill="#275396"/>
    <path d="M9.47 11.5303L8.6519 19.2802L7.4 11.5303H5.6L4.3481 19.2802L3.53 11.5303H2L3.224 20.5303H5.276L6.5 12.9937L7.724 20.5303H9.776L11 11.5303H9.47Z" fill="#275396" stroke="#275396" stroke-width="0.5"/>
    </g>
    <defs>
    <clipPath id="clip0_1200_1380">
    <rect width="24" height="24" fill="white" transform="translate(0 0.530273)"/>
    </clipPath>
    </defs>
    </svg>
    