<svg width="18" height="18" viewBox="0 0 18 18" fill="none" xmlns="http://www.w3.org/2000/svg">
    <path d="M3.5 11.4229H14.5V10.4229H3.5V11.4229ZM3.5 8.42285H14.5V7.42285H3.5V8.42285ZM3.5 5.42285H14.5V4.42285H3.5V5.42285ZM18 17.9999L14.923 14.9229H1.615C1.155 14.9229 0.771 14.7689 0.463 14.4609C0.154333 14.1522 0 13.7679 0 13.3079V2.53785C0 2.07785 0.154333 1.69385 0.463 1.38585C0.771 1.07718 1.155 0.922852 1.615 0.922852H16.385C16.845 0.922852 17.229 1.07718 17.537 1.38585C17.8457 1.69385 18 2.07785 18 2.53785V17.9999ZM1.615 13.9229H15.35L17 15.5669V2.53785C17 2.38452 16.936 2.24352 16.808 2.11485C16.6793 1.98685 16.5383 1.92285 16.385 1.92285H1.615C1.46167 1.92285 1.32067 1.98685 1.192 2.11485C1.064 2.24352 1 2.38452 1 2.53785V13.3079C1 13.4612 1.064 13.6022 1.192 13.7309C1.32067 13.8589 1.46167 13.9229 1.615 13.9229Z" fill="#323232"/>
    </svg>
    