<svg width="21" height="21" viewBox="0 0 21 21" fill="none" xmlns="http://www.w3.org/2000/svg">
    <g clip-path="url(#clip0_1200_1212)">
    <path d="M5.25 7.875C5.94619 7.875 6.61387 7.59844 7.10616 7.10616C7.59844 6.61387 7.875 5.94619 7.875 5.25M5.25 7.875C4.55381 7.875 3.88613 7.59844 3.39384 7.10616C2.90156 6.61387 2.625 5.94619 2.625 5.25M5.25 7.875V10.5M7.875 5.25C7.875 4.55381 7.59844 3.88613 7.10616 3.39384C6.61387 2.90156 5.94619 2.625 5.25 2.625M7.875 5.25H10.5M5.25 2.625C4.55381 2.625 3.88613 2.90156 3.39384 3.39384C2.90156 3.88613 2.625 4.55381 2.625 5.25M5.25 2.625V0M2.625 5.25H0M1.75 1.75L3.5 3.5M7 7L8.75 8.75M8.75 1.75L7 3.5M3.5 7L1.75 8.75M15.75 10.5C16.4462 10.5 17.1139 10.2234 17.6062 9.73116C18.0984 9.23887 18.375 8.57119 18.375 7.875M15.75 10.5C15.0538 10.5 14.3861 10.2234 13.8938 9.73116C13.4016 9.23887 13.125 8.57119 13.125 7.875M15.75 10.5V13.125M18.375 7.875C18.375 7.17881 18.0984 6.51113 17.6062 6.01884C17.1139 5.52656 16.4462 5.25 15.75 5.25M18.375 7.875H21M15.75 5.25C15.0538 5.25 14.3861 5.52656 13.8938 6.01884C13.4016 6.51113 13.125 7.17881 13.125 7.875M15.75 5.25V2.625M13.125 7.875H10.5M12.25 4.375L14 6.125M17.5 9.625L19.25 11.375M19.25 4.375L17.5 6.125M14 9.625L12.25 11.375M7.875 18.375C8.57119 18.375 9.23887 18.0984 9.73116 17.6062C10.2234 17.1139 10.5 16.4462 10.5 15.75M7.875 18.375C7.17881 18.375 6.51113 18.0984 6.01884 17.6062C5.52656 17.1139 5.25 16.4462 5.25 15.75M7.875 18.375V21M10.5 15.75C10.5 15.0538 10.2234 14.3861 9.73116 13.8938C9.23887 13.4016 8.57119 13.125 7.875 13.125M10.5 15.75H13.125M7.875 13.125C7.17881 13.125 6.51113 13.4016 6.01884 13.8938C5.52656 14.3861 5.25 15.0538 5.25 15.75M7.875 13.125V10.5M5.25 15.75H2.625M4.375 12.25L6.125 14M9.625 17.5L11.375 19.25M11.375 12.25L9.625 14M6.125 17.5L4.375 19.25" stroke="#A8C1D3" stroke-width="2"/>
    </g>
    <defs>
    <clipPath id="clip0_1200_1212">
    <rect width="21" height="21" fill="white"/>
    </clipPath>
    </defs>
    </svg>
    