<svg width="340" height="296" viewBox="0 0 340 296" fill="none" xmlns="http://www.w3.org/2000/svg">
<path d="M339.977 153.302C339.711 144.73 336.092 136.606 329.897 130.676L202.606 6.67054C200.696 4.76591 198.43 3.25684 195.936 2.22983C193.442 1.20282 190.77 0.678057 188.073 0.685628H165.355L314.62 146.418L314.683 146.479C316.764 148.451 317.984 151.164 318.079 154.03C318.174 156.896 317.137 159.684 315.191 161.79L207.983 280.621L223.031 295.26L331.391 176.58C337.197 170.248 340.281 161.888 339.977 153.302Z" fill="#9E9E9E"/>
<path d="M281.662 161.027C282.708 158.148 282.927 155.032 282.293 152.035C281.659 149.037 280.198 146.277 278.076 144.067C278.003 143.991 277.939 143.909 277.866 143.834L142.789 6.48951L142.725 6.42507C140.693 4.38172 138.275 2.76173 135.613 1.65888C132.95 0.556023 130.096 -0.00778604 127.214 8.12107e-05H30.2939C22.2622 0.00915269 14.5621 3.20375 8.88289 8.88302C3.20365 14.5623 0.00907143 22.2624 0 30.2941V127.015C0.00489401 130.003 0.617884 132.959 1.80164 135.702C2.9854 138.446 4.71516 140.92 6.8856 142.973L151.055 280.206L151.107 280.256C154.147 283.129 158.173 284.726 162.355 284.717C162.56 284.717 162.765 284.713 162.972 284.705C164.544 284.649 166.1 284.368 167.593 283.871C170.231 282.992 172.602 281.454 174.48 279.404L278.291 166.56C279.77 164.957 280.915 163.076 281.662 161.027ZM162.115 260.448L21.988 127.062L21.9352 127.013V30.2941C21.9377 28.078 22.8192 25.9534 24.3862 24.3864C25.9532 22.8194 28.0778 21.9379 30.2939 21.9354H127.213L258.619 155.548L162.115 260.448Z" fill="#9E9E9E"/>
<path d="M85.0002 43.7012C77.9503 43.7012 71.0588 45.7917 65.1971 49.7084C59.3353 53.6251 54.7666 59.1921 52.0688 65.7054C49.3709 72.2186 48.665 79.3856 50.0404 86.3C51.4157 93.2145 54.8106 99.5658 59.7956 104.551C64.7806 109.536 71.1318 112.931 78.0462 114.306C84.9606 115.681 92.1276 114.976 98.6408 112.278C105.154 109.58 110.721 105.011 114.638 99.1493C118.554 93.2875 120.645 86.396 120.645 79.3461C120.634 69.8957 116.875 60.8355 110.193 54.1531C103.511 47.4707 94.4505 43.7119 85.0002 43.7012ZM85.0002 93.0556C82.2887 93.0556 79.6381 92.2516 77.3836 90.7452C75.1291 89.2387 73.3719 87.0976 72.3343 84.5925C71.2966 82.0874 71.0251 79.3309 71.5541 76.6715C72.0831 74.0121 73.3888 71.5693 75.3061 69.6519C77.2234 67.7346 79.6662 66.4289 82.3256 65.8999C84.985 65.3709 87.7415 65.6424 90.2466 66.6801C92.7517 67.7177 94.8928 69.4749 96.3992 71.7294C97.9056 73.984 98.7097 76.6346 98.7097 79.3461C98.7055 82.9808 97.2598 86.4654 94.6897 89.0356C92.1195 91.6057 88.6349 93.0515 85.0002 93.0556Z" fill="#9E9E9E"/>
</svg>
