<svg width="329" height="309" viewBox="0 0 329 309" fill="none" xmlns="http://www.w3.org/2000/svg">
<g clip-path="url(#clip0_992_733)">
<path d="M163.929 0C158.157 0 152.383 0.92555 147.979 2.77706L6.52675 62.5126C2.38582 64.2528 0.281315 70.6358 0.025063 72.9125C-0.258402 75.4771 1.85975 82.2261 6.52675 84.1888L148.695 144.224C157.489 147.927 171.761 147.927 180.582 144.224L322.036 84.4904C326.892 82.4492 328.968 75.5818 328.469 72.9125L328.458 72.9238C328.053 70.7518 325.974 64.4752 322.023 62.8134L179.868 2.77706C175.471 0.92555 169.7 0 163.929 0ZM164.016 21.984C168.013 21.984 172.008 22.6249 175.052 23.9069L271.484 63.4761C274.22 64.6268 275.658 68.9755 275.939 70.4795L275.95 70.4682C276.295 72.3164 274.855 77.0724 271.493 78.4857L175.55 117.846C169.442 120.41 159.559 120.41 153.47 117.846L57.0299 78.2772C53.7984 76.9183 52.3308 72.244 52.527 70.4682C52.7047 68.8917 54.1626 64.4713 57.0299 63.2664L152.975 23.9057C156.025 22.6237 160.02 21.984 164.016 21.984Z" fill="#9E9E9E"/>
<path d="M322.017 218.037L180.052 280.473C171.794 284.109 158.411 284.109 150.166 280.473L6.87478 217.356C4.08337 216.127 0.922784 217.961 0.930683 220.999L0.867188 235.498C0.886085 238.686 3.32537 241.014 6.87325 242.579L150.165 305.696C158.41 309.332 171.793 309.332 180.05 305.696L322.66 242.882C326.09 241.176 328.264 239.172 328.583 235.203L328.645 222.908C328.598 217.629 323.806 217.326 322.017 218.037Z" fill="#9E9E9E"/>
<path d="M322.04 168.028L180.075 230.464C171.817 234.1 158.435 234.1 150.19 230.464L6.89824 167.347C4.10684 166.119 0.946222 167.952 0.954121 170.99L0.890625 185.49C0.909523 188.677 3.34883 191.005 6.89671 192.57L150.188 255.687C158.433 259.323 171.816 259.323 180.074 255.687L322.683 192.873C326.114 191.167 328.288 189.163 328.607 185.194L328.669 172.899C328.622 167.62 323.829 167.317 322.04 168.028Z" fill="#9E9E9E"/>
<path d="M322.04 111.674L180.075 174.11C171.817 177.746 158.435 177.746 150.19 174.11L6.89824 110.993C4.10684 109.764 0.946222 111.597 0.954121 114.636L0.890625 129.135C0.909523 132.322 3.34883 134.651 6.89671 136.216L150.188 199.333C158.433 202.969 171.816 202.969 180.074 199.333L322.683 136.519C326.114 134.812 328.288 132.809 328.607 128.84L328.669 116.544C328.622 111.266 323.829 110.962 322.04 111.674Z" fill="#9E9E9E"/>
</g>
<defs>
<clipPath id="clip0_992_733">
<rect width="328.67" height="308.423" fill="white"/>
</clipPath>
</defs>
</svg>
