<svg width="335" height="320" viewBox="0 0 335 320" fill="none" xmlns="http://www.w3.org/2000/svg">
<path d="M334.458 264.771C326.114 221.182 317.753 177.657 309.408 134.067C307.785 125.576 299.424 122.183 292.005 126.063C280.397 132.086 268.659 137.882 256.841 143.402C307.444 41.4324 168.817 -52.4682 92.8066 33.9971C66.1982 64.1447 60.3212 107.67 78.7962 143.548C64.5747 151.681 48.1615 158.549 33.2257 166.26C26.2936 169.653 25.7903 172.981 24.313 180.839C16.3905 221.734 8.53296 262.71 0.610488 303.621C-0.444759 309.076 -0.590872 314.384 4.00351 317.566C9.52327 321.316 13.6306 319.482 19.9296 316.787C49.574 304.254 79.0884 291.023 108.814 278.928C146.462 292.224 183.964 305.471 221.401 318.703C224.307 319.758 227.7 320.326 230.249 319.271C262.02 305.618 293.791 292.029 325.643 278.506C331.585 275.892 335.903 271.996 334.491 264.771H334.458ZM101.849 256.557C101.638 258.473 100.291 258.814 98.3751 259.674C74.1693 269.301 48.9083 282.386 25.2059 290.244L45.5802 184.67C45.6452 184.394 45.7913 184.102 46.0835 184.037C46.7167 184.183 89.7383 161.893 90.3065 162.948C96.2484 170.952 102.125 178.939 107.921 186.943C108.424 209.801 103.327 233.504 101.833 256.573L101.849 256.557ZM116.704 258.813C115.438 258.602 121.948 207.431 121.509 206.879C121.509 206.603 121.785 206.376 122.078 206.457C134.465 222.513 146.137 239.153 158.102 255.079C163.687 262.58 172.324 261.443 177.486 254.365C187.681 240.42 197.942 226.49 208.267 212.48C208.624 211.912 209.257 212.204 209.257 212.902C211.871 239.657 214.988 267.32 217.391 293.929C217.537 295.422 117.191 258.554 116.688 258.83L116.704 258.813ZM167.372 231.15C147.128 203.551 126.818 175.952 106.444 148.353C102.547 143.045 98.9433 136.599 95.7613 129.18C70.8575 70.9468 124.984 8.67107 185.636 23.7367C235.882 36.2698 260.721 92.5877 235.021 137.882C214.436 169.653 190.019 200.304 167.372 231.15ZM311.519 260.794C310.804 260.437 232.684 295.828 232.327 294.059C229.063 262.223 225.752 230.224 222.488 198.242C221.433 190.742 228.852 185.498 232.684 179.556C233.187 178.631 289.586 151.746 290.284 151.113C291.128 150.967 311.941 260.372 311.519 260.794Z" fill="#9E9E9E"/>
<path d="M123.373 99.8283C124.363 158.143 211.121 158.208 212.176 99.8283C211.121 41.4488 124.363 41.4488 123.373 99.8283ZM167.742 129.473C128.747 128.84 128.747 70.7359 167.742 70.1027C206.738 70.8171 206.738 128.84 167.742 129.473Z" fill="#9E9E9E"/>
</svg>
