<svg width="24" height="24" viewBox="0 0 24 24" fill="none" xmlns="http://www.w3.org/2000/svg">
    <path d="M14.6781 5.0784C15.2408 4.51572 16.004 4.19961 16.7997 4.19961C17.5955 4.19961 18.3586 4.51572 18.9213 5.0784C19.484 5.64108 19.8001 6.40425 19.8001 7.2C19.8001 7.99576 19.484 8.75892 18.9213 9.3216L17.4513 10.7904C17.2875 10.9602 17.1969 11.1876 17.199 11.4236C17.2012 11.6596 17.2959 11.8852 17.4629 12.052C17.6298 12.2188 17.8556 12.3134 18.0916 12.3153C18.3276 12.3172 18.5549 12.2264 18.7245 12.0624L20.1933 10.5936C21.0677 9.68831 21.5515 8.47582 21.5406 7.21728C21.5296 5.95873 21.0248 4.75483 20.1349 3.86487C19.2449 2.97491 18.041 2.4701 16.7825 2.45917C15.5239 2.44823 14.3114 2.93204 13.4061 3.8064L9.80613 7.4064C9.33854 7.87403 8.97263 8.43323 8.73133 9.04894C8.49004 9.66464 8.37857 10.3236 8.40392 10.9844C8.42927 11.6452 8.59089 12.2936 8.87865 12.889C9.16641 13.4844 9.57409 14.014 10.0761 14.4444C10.2577 14.596 10.4917 14.67 10.7274 14.6504C10.9632 14.6309 11.1817 14.5193 11.3358 14.3398C11.4899 14.1603 11.5671 13.9274 11.5508 13.6914C11.5344 13.4554 11.4259 13.2353 11.2485 13.0788C10.9344 12.8099 10.6792 12.4789 10.4991 12.1067C10.3189 11.7345 10.2177 11.3291 10.2017 10.9158C10.1857 10.5026 10.2553 10.0906 10.4061 9.70553C10.5569 9.3205 10.7857 8.9708 11.0781 8.6784L14.6781 5.0784Z" fill="#A8C1D3"/>
    <path d="M13.9234 9.55581C13.7418 9.40421 13.5079 9.33019 13.2721 9.34977C13.0364 9.36935 12.8178 9.48095 12.6637 9.66043C12.5097 9.8399 12.4324 10.0728 12.4488 10.3088C12.4651 10.5448 12.5737 10.7649 12.751 10.9214C12.8086 10.971 12.8654 11.0234 12.9214 11.0786C13.2001 11.3572 13.4211 11.6879 13.5719 12.052C13.7227 12.416 13.8004 12.8062 13.8004 13.2002C13.8004 13.5942 13.7227 13.9844 13.5719 14.3484C13.4211 14.7125 13.2001 15.0432 12.9214 15.3218L9.3214 18.9218C8.75872 19.4845 7.99556 19.8006 7.1998 19.8006C6.40405 19.8006 5.64089 19.4845 5.0782 18.9218C4.51552 18.3591 4.19941 17.596 4.19941 16.8002C4.19941 16.0045 4.51552 15.2413 5.0782 14.6786L6.5482 13.2098C6.71207 13.04 6.80268 12.8126 6.80052 12.5766C6.79836 12.3406 6.7036 12.115 6.53665 11.9482C6.3697 11.7814 6.14393 11.6868 5.90795 11.6849C5.67197 11.683 5.44467 11.7738 5.275 11.9378L3.8062 13.4066C3.34775 13.8494 2.98208 14.379 2.73052 14.9647C2.47895 15.5503 2.34654 16.1801 2.341 16.8175C2.33546 17.4548 2.45691 18.0869 2.69826 18.6768C2.93961 19.2667 3.29602 19.8026 3.74671 20.2533C4.19739 20.704 4.73332 21.0604 5.32322 21.3018C5.91313 21.5431 6.54519 21.6645 7.18253 21.659C7.81987 21.6535 8.44973 21.5211 9.03535 21.2695C9.62096 21.0179 10.1506 20.6523 10.5934 20.1938L14.1934 16.5938C14.661 16.1262 15.0269 15.567 15.2682 14.9513C15.5095 14.3356 15.621 13.6766 15.5956 13.0158C15.5703 12.355 15.4086 11.7066 15.1209 11.1112C14.8331 10.5158 14.4254 9.98624 13.9234 9.55581Z" fill="#A8C1D3"/>
    </svg>
    