<svg xmlns="http://www.w3.org/2000/svg" xmlns:xlink="http://www.w3.org/1999/xlink" version="1.1" id="Layer_1" x="0px" y="0px" viewBox="0 0 512 512" style="enable-background:new 0 0 512 512;" xml:space="preserve"><script xmlns=""/>
<g id="XMLID_2_">
	<path id="XMLID_9_" class="st0" d="M455.7,135.7c2.6,2.6,5.1,6,7.7,10.2h-134V11.1c4.3,2.6,7.7,5.1,10.2,7.7L455.7,135.7z    M320,182.6h155.3v302.1c0,7.7-2.6,14.5-7.7,19.6c-5.1,5.1-11.9,7.7-19.6,7.7H64c-7.7,0-14.5-2.6-19.6-7.7   c-5.1-5.1-7.7-11.9-7.7-19.6V27.3c0-7.7,2.6-14.5,7.7-19.6C49.5,2.6,56.3,0,64,0h228.7v155.3c0,7.7,2.6,14.5,7.7,19.6   C305.5,180.1,312.3,182.6,320,182.6z M366.1,393.4v-17.9c0-2.6-0.9-5.1-2.6-6.8c-1.7-1.7-4.3-2.6-6.8-2.6H155.3   c-2.6,0-5.1,0.9-6.8,2.6c-1.7,1.7-2.6,4.3-2.6,6.8v17.9c0,2.6,0.9,5.1,2.6,6.8c1.7,1.7,4.3,2.6,6.8,2.6h201.4   c2.6,0,5.1-0.9,6.8-2.6C365.2,397.7,366.1,395.9,366.1,393.4z M366.1,320v-17.9c0-2.6-0.9-5.1-2.6-6.8c-1.7-1.7-4.3-2.6-6.8-2.6   H155.3c-2.6,0-5.1,0.9-6.8,2.6c-1.7,1.7-2.6,4.3-2.6,6.8V320c0,2.6,0.9,5.1,2.6,6.8c1.7,1.7,4.3,2.6,6.8,2.6h201.4   c2.6,0,5.1-0.9,6.8-2.6S366.1,322.6,366.1,320z M366.1,246.6v-17.9c0-2.6-0.9-5.1-2.6-6.8c-1.7-1.7-4.3-2.6-6.8-2.6H155.3   c-2.6,0-5.1,0.9-6.8,2.6c-1.7,1.7-2.6,4.3-2.6,6.8v17.9c0,2.6,0.9,5.1,2.6,6.8c1.7,1.7,4.3,2.6,6.8,2.6h201.4   c2.6,0,5.1-0.9,6.8-2.6C365.2,251.7,366.1,249.2,366.1,246.6z" fill="currentColor"/>
</g>
</svg>