<svg width="18" height="19" viewBox="0 0 18 19" fill="none" xmlns="http://www.w3.org/2000/svg">
    <path fill-rule="evenodd" clip-rule="evenodd" d="M0 1.5C0 1.10218 0.158035 0.720644 0.43934 0.43934C0.720644 0.158035 1.10218 0 1.5 0H16.5C16.8978 0 17.2794 0.158035 17.5607 0.43934C17.842 0.720644 18 1.10218 18 1.5V3.586C17.9999 4.11639 17.7891 4.62501 17.414 5L12 10.414V17.838C12 18.0255 11.9521 18.2099 11.8608 18.3737C11.7695 18.5375 11.6379 18.6753 11.4783 18.7739C11.3188 18.8724 11.1368 18.9286 10.9494 18.9371C10.7621 18.9455 10.5757 18.9059 10.408 18.822L6.691 16.964C6.48337 16.8602 6.30875 16.7006 6.1867 16.5031C6.06466 16.3057 6.00001 16.0781 6 15.846V10.414L0.586 5C0.210901 4.62501 0.000113275 4.11639 0 3.586V1.5ZM2 2V3.586L7.56 9.146C7.69945 9.28527 7.81008 9.45066 7.88558 9.63272C7.96108 9.81477 7.99996 10.0099 8 10.207V15.382L10 16.382V10.207C10 9.809 10.158 9.427 10.44 9.147L16 3.585V2H2Z" fill="currentColor"/>
    </svg>
    