<svg width="16" height="16" viewBox="0 0 16 16" fill="none" xmlns="http://www.w3.org/2000/svg">
    <path d="M14 1H9C8.44772 1 8 1.44772 8 2V7C8 7.55228 8.44772 8 9 8H14C14.5523 8 15 7.55228 15 7V2C15 1.44772 14.5523 1 14 1Z" stroke="#738189" stroke-width="2" stroke-linecap="round" stroke-linejoin="round"/>
    <path d="M8 15V2C8 1.73478 7.89464 1.48043 7.70711 1.29289C7.51957 1.10536 7.26522 1 7 1H2C1.73478 1 1.48043 1.10536 1.29289 1.29289C1.10536 1.48043 1 1.73478 1 2V14C1 14.2652 1.10536 14.5196 1.29289 14.7071C1.48043 14.8946 1.73478 15 2 15H14C14.2652 15 14.5196 14.8946 14.7071 14.7071C14.8946 14.5196 15 14.2652 15 14V9C15 8.73478 14.8946 8.48043 14.7071 8.29289C14.5196 8.10536 14.2652 8 14 8H1" stroke="#738189" stroke-width="2" stroke-linecap="round" stroke-linejoin="round"/>
    </svg>
    