<svg width="24" height="24" viewBox="0 0 24 24" fill="none" xmlns="http://www.w3.org/2000/svg">
    <path d="M22.5 11H13V1.5H11V11H1.5V13H11V22.5H13V13H22.5V11Z" fill="#A8C1D3"/>
    <path d="M19.1895 15L20.25 16.0605L17.5605 18.75L20.25 21.4395L19.1895 22.5L15.4395 18.75L19.1895 15ZM8.25 22.5H2.25C2.12221 22.4999 1.99655 22.4672 1.88496 22.4049C1.77336 22.3427 1.67952 22.2529 1.61236 22.1442C1.54519 22.0355 1.50691 21.9114 1.50116 21.7837C1.49541 21.6561 1.52238 21.5291 1.5795 21.4148L4.5795 15.4148C4.6487 15.2985 4.74692 15.2022 4.86453 15.1354C4.98213 15.0685 5.11509 15.0334 5.25038 15.0334C5.38566 15.0334 5.51862 15.0685 5.63623 15.1354C5.75383 15.2022 5.85205 15.2985 5.92125 15.4148L8.92125 21.4148C8.9784 21.5291 9.00537 21.6562 8.99958 21.7839C8.9938 21.9117 8.95546 22.0358 8.8882 22.1445C8.82094 22.2533 8.727 22.343 8.61531 22.4052C8.50361 22.4674 8.37786 22.5001 8.25 22.5ZM3.4635 21H7.0365L5.25 17.427L3.4635 21ZM21 9H16.5C16.1023 8.9996 15.721 8.84144 15.4398 8.56022C15.1586 8.279 15.0004 7.8977 15 7.5V3C15.0004 2.6023 15.1586 2.221 15.4398 1.93978C15.721 1.65856 16.1023 1.5004 16.5 1.5H21C21.3977 1.5004 21.779 1.65856 22.0602 1.93978C22.3414 2.221 22.4996 2.6023 22.5 3V7.5C22.4996 7.8977 22.3414 8.279 22.0602 8.56022C21.779 8.84144 21.3977 8.9996 21 9ZM16.5 3V7.5H21.0008L21 3H16.5ZM5.25 9C4.50832 9 3.7833 8.78007 3.16661 8.36801C2.54993 7.95596 2.06928 7.37029 1.78545 6.68506C1.50162 5.99984 1.42736 5.24584 1.57206 4.51841C1.71675 3.79098 2.0739 3.1228 2.59835 2.59835C3.1228 2.0739 3.79098 1.71675 4.51841 1.57206C5.24584 1.42736 5.99984 1.50162 6.68506 1.78545C7.37029 2.06928 7.95596 2.54993 8.36801 3.16661C8.78007 3.7833 9 4.50832 9 5.25C8.99881 6.2442 8.60334 7.19733 7.90034 7.90034C7.19733 8.60334 6.2442 8.99881 5.25 9ZM5.25 3C4.80499 3 4.36998 3.13196 3.99997 3.3792C3.62996 3.62643 3.34157 3.97783 3.17127 4.38896C3.00098 4.8001 2.95642 5.2525 3.04323 5.68895C3.13005 6.12541 3.34434 6.52632 3.65901 6.84099C3.97368 7.15566 4.37459 7.36995 4.81105 7.45677C5.24751 7.54359 5.69991 7.49903 6.11104 7.32873C6.52217 7.15843 6.87358 6.87005 7.12081 6.50003C7.36804 6.13002 7.5 5.69501 7.5 5.25C7.49941 4.65345 7.26216 4.0815 6.84033 3.65967C6.41851 3.23784 5.84656 3.0006 5.25 3Z" fill="#A8C1D3"/>
    </svg>
    