<svg width="24" height="24" viewBox="0 0 24 24" fill="none" xmlns="http://www.w3.org/2000/svg">
    <path d="M4.998 1V0C4.44572 0 3.998 0.447715 3.998 1L4.998 1ZM19.5 1L20.2071 0.292893L19.9142 0H19.5V1ZM23 4.5H24V4.08579L23.7071 3.79289L23 4.5ZM23 23V24H24V23H23ZM18 6H17V7H18V6ZM9.25 12V11H8.69121L8.39834 11.4759L9.25 12ZM7.25 15.25L6.39834 15.7741L7.25 17.158L8.10166 15.7741L7.25 15.25ZM5.25 12L6.10166 11.4759L5.8088 11H5.25V12ZM5 12V11H3.16833L4.15882 12.5408L5 12ZM4.75 19L3.93627 18.4188L2.80681 20H4.75V19ZM5 19V20H5.52395L5.82219 19.5692L5 19ZM7.25 15.75L8.07219 15.1808L7.25 13.9932L6.42781 15.1808L7.25 15.75ZM9.5 19L8.67781 19.5692L8.97605 20H9.5V19ZM9.75 19V20H11.6932L10.5637 18.4188L9.75 19ZM9.5 12L10.3412 12.5408L11.3317 11H9.5V12ZM5.998 9V1H3.998V9H5.998ZM4.998 2H19.5V0H4.998V2ZM18.7929 1.70711L22.2929 5.20711L23.7071 3.79289L20.2071 0.292893L18.7929 1.70711ZM22 4.5V23H24V4.5H22ZM23 22H4V24H23V22ZM17 1V6H19V1H17ZM18 7H23V5H18V7ZM8.39834 11.4759L6.39834 14.7259L8.10166 15.7741L10.1017 12.5241L8.39834 11.4759ZM8.10166 14.7259L6.10166 11.4759L4.39834 12.5241L6.39834 15.7741L8.10166 14.7259ZM5.25 11H5V13H5.25V11ZM4.15882 12.5408L6.40882 16.0408L8.09118 14.9592L5.84118 11.4592L4.15882 12.5408ZM6.43627 14.9188L3.93627 18.4188L5.56373 19.5812L8.06373 16.0812L6.43627 14.9188ZM4.75 20H5V18H4.75V20ZM5.82219 19.5692L8.07219 16.3192L6.42781 15.1808L4.17781 18.4308L5.82219 19.5692ZM6.42781 16.3192L8.67781 19.5692L10.3222 18.4308L8.07219 15.1808L6.42781 16.3192ZM9.5 20H9.75V18H9.5V20ZM10.5637 18.4188L8.06373 14.9188L6.43627 16.0812L8.93627 19.5812L10.5637 18.4188ZM8.09118 16.0408L10.3412 12.5408L8.65882 11.4592L6.40882 14.9592L8.09118 16.0408ZM9.5 11H9.25V13H9.5V11Z" fill="#1F7346"/>
    </svg>
    