<svg width="273" height="273" viewBox="0 0 273 273" fill="none"
     xmlns="http://www.w3.org/2000/svg">
    <g clip-path="url(#clip0_854_50)">
        <path d="M22.75 125.125H147.875C153.909 125.125 159.695 122.728 163.962 118.462C168.228 114.195 170.625 108.409 170.625 102.375V22.75C170.625 16.7163 168.228 10.9298 163.962 6.66332C159.695 2.39687 153.909 0 147.875 0L22.75 0C16.7163 0 10.9298 2.39687 6.66332 6.66332C2.39687 10.9298 0 16.7163 0 22.75L0 102.375C0 108.409 2.39687 114.195 6.66332 118.462C10.9298 122.728 16.7163 125.125 22.75 125.125ZM22.75 22.75H147.875V102.375H22.75V22.75Z"
              fill="#9E9E9E"/>
        <path d="M250.25 0H216.125C210.091 0 204.305 2.39687 200.038 6.66332C195.772 10.9298 193.375 16.7163 193.375 22.75V102.375C193.375 108.409 195.772 114.195 200.038 118.462C204.305 122.728 210.091 125.125 216.125 125.125H250.25C256.284 125.125 262.07 122.728 266.337 118.462C270.603 114.195 273 108.409 273 102.375V22.75C273 16.7163 270.603 10.9298 266.337 6.66332C262.07 2.39687 256.284 0 250.25 0ZM250.25 102.375H216.125V22.75H250.25V102.375Z"
              fill="#9E9E9E"/>
        <path d="M56.875 147.875H22.75C16.7163 147.875 10.9298 150.272 6.66332 154.538C2.39687 158.805 0 164.591 0 170.625L0 250.25C0 256.284 2.39687 262.07 6.66332 266.337C10.9298 270.603 16.7163 273 22.75 273H56.875C62.9087 273 68.6952 270.603 72.9617 266.337C77.2281 262.07 79.625 256.284 79.625 250.25V170.625C79.625 164.591 77.2281 158.805 72.9617 154.538C68.6952 150.272 62.9087 147.875 56.875 147.875ZM56.875 250.25H22.75V170.625H56.875V250.25Z"
              fill="#9E9E9E"/>
        <path d="M250.25 147.875H125.125C119.091 147.875 113.305 150.272 109.038 154.538C104.772 158.805 102.375 164.591 102.375 170.625V250.25C102.375 256.284 104.772 262.07 109.038 266.337C113.305 270.603 119.091 273 125.125 273H250.25C256.284 273 262.07 270.603 266.337 266.337C270.603 262.07 273 256.284 273 250.25V170.625C273 164.591 270.603 158.805 266.337 154.538C262.07 150.272 256.284 147.875 250.25 147.875ZM250.25 250.25H125.125V170.625H250.25V250.25Z"
              fill="#9E9E9E"/>
    </g>
    <defs>
        <clipPath id="clip0_854_50">
            <rect width="273" height="273" fill="white"/>
        </clipPath>
    </defs>
</svg>
