<svg width="319" height="319" viewBox="0 0 319 319" fill="none" xmlns="http://www.w3.org/2000/svg">
<path d="M306 150.358L167.476 281.004C150.507 297.008 127.49 306 103.49 306C79.4907 306 56.4741 297.008 39.5039 281.004C22.5337 264.999 13 243.291 13 220.656C13 198.023 22.5337 176.315 39.5039 160.31L178.028 29.6643C189.341 18.9943 204.686 13 220.685 13C236.685 13 252.029 18.9943 263.343 29.6643C274.656 40.3343 281.012 54.8059 281.012 69.8956C281.012 84.9853 274.656 99.4571 263.343 110.127L124.668 240.771C119.011 246.107 111.339 249.105 103.339 249.105C95.3395 249.105 87.6674 246.107 82.0106 240.771C76.354 235.437 73.176 228.202 73.176 220.656C73.176 213.112 76.354 205.875 82.0106 200.541L209.982 79.9891" stroke="#9E9E9E" stroke-width="25" stroke-linecap="round" stroke-linejoin="round"/>
</svg>
