<svg width="250" height="301" viewBox="0 0 250 301" fill="none" xmlns="http://www.w3.org/2000/svg">
<g clip-path="url(#clip0_991_691)">
<path d="M71.8826 0.148642C59.9393 0.876655 50.1515 12.0358 50.4756 23.9161V50.3075C40.2768 50.4791 30.0423 49.9598 19.8656 50.5717C8.31385 52.0867 -0.765809 63.2944 0.0511092 74.9189C0.092873 143.045 -0.0323084 211.175 0.113581 279.298C0.697492 291.457 12.1015 301.675 24.2382 300.965C75.4509 300.923 126.668 301.049 177.878 300.902C190.025 300.318 200.234 288.903 199.524 276.755V250.726C209.723 250.554 219.958 251.073 230.134 250.461C241.689 248.946 250.765 237.732 249.949 226.106C249.907 176.758 250.033 127.406 249.886 78.0613C249.472 71.1923 245.759 65.1497 240.765 60.8269C222.2 42.3547 203.852 23.6495 185.152 5.32265C180.643 1.53156 174.012 -0.396201 167.897 0.0680757C135.893 0.121367 103.884 -0.0384445 71.8826 0.148642ZM73.7873 21.2231H170.619C190.021 40.63 209.417 60.0437 228.806 79.464V229.564H199.524C199.461 195.674 199.651 161.777 199.43 127.892C198.9 121.166 195.231 115.314 190.341 111.066C171.775 92.5948 153.428 73.8877 134.727 55.562C129.298 50.9191 121.922 49.8237 115.014 50.3075H71.6185V21.2231H73.7873ZM23.3627 71.4618H101.956C102.015 91.8895 101.84 112.323 102.045 132.747C102.767 141.674 111.366 148.732 120.231 147.966H178.382V279.803H21.1941V71.4618H23.3627ZM126.797 77.3814C143.254 93.8566 159.722 110.321 176.173 126.803H123.091V73.6807C124.327 74.9143 125.562 76.1478 126.797 77.3814ZM48.8854 181.17C41.4922 181.645 36.8516 190.869 40.9029 197.084C43.3217 201.517 48.6885 202.797 53.3717 202.268C78.2204 202.189 125.463 202.427 150.302 202.15C157.517 201.429 161.84 192.346 157.862 186.274C155.361 181.68 149.785 180.613 145.001 181.114C120.422 181.151 73.462 181.039 48.8854 181.17ZM48.847 126.931C41.4538 127.406 36.8132 136.63 40.8646 142.845C43.2834 147.278 48.6502 148.558 53.3333 148.029C78.182 147.95 47.0472 148.189 71.8861 147.911C79.1011 147.19 83.4251 138.107 79.4472 132.035C76.9461 127.441 71.3692 126.374 66.5851 126.875C42.0062 126.913 73.4236 126.801 48.847 126.931ZM48.7559 229.651C41.3627 230.126 36.7221 239.35 40.7734 245.565C43.1921 249.998 48.5589 251.278 53.2421 250.749C78.0908 250.67 125.333 250.908 150.172 250.631C157.387 249.91 161.711 240.827 157.733 234.755C155.232 230.161 149.655 229.094 144.871 229.595C120.292 229.633 73.3325 229.52 48.7559 229.651Z" fill="#9E9E9E"/>
</g>
<defs>
<clipPath id="clip0_991_691">
<rect width="250" height="301" fill="white"/>
</clipPath>
</defs>
</svg>
