<svg width="306" height="306" viewBox="0 0 306 306" fill="none"
     xmlns="http://www.w3.org/2000/svg">
    <g clip-path="url(#clip0_854_79)">
        <path d="M153 102C142.913 102 133.053 104.991 124.666 110.595C116.279 116.199 109.742 124.164 105.882 133.483C102.022 142.802 101.012 153.057 102.98 162.95C104.948 172.843 109.805 181.93 116.938 189.062C124.07 196.195 133.157 201.052 143.05 203.02C152.943 204.988 163.198 203.978 172.517 200.118C181.836 196.258 189.801 189.721 195.405 181.334C201.009 172.947 204 163.087 204 153C204 139.474 198.627 126.502 189.062 116.938C179.498 107.373 166.526 102 153 102ZM153 178.5C147.957 178.5 143.026 177.004 138.833 174.202C134.64 171.401 131.371 167.418 129.441 162.758C127.511 158.099 127.006 152.972 127.99 148.025C128.974 143.079 131.403 138.535 134.969 134.969C138.535 131.403 143.079 128.974 148.025 127.99C152.972 127.006 158.099 127.511 162.758 129.441C167.418 131.371 171.401 134.64 174.203 138.833C177.004 143.026 178.5 147.957 178.5 153C178.5 159.763 175.813 166.249 171.031 171.031C166.249 175.813 159.763 178.5 153 178.5Z"
              fill="#9E9E9E"/>
        <path d="M271.498 177.225L265.837 173.961C268.385 160.095 268.385 145.88 265.837 132.014L271.498 128.749C275.851 126.238 279.667 122.894 282.728 118.907C285.789 114.921 288.035 110.371 289.337 105.517C290.639 100.662 290.973 95.5993 290.318 90.6163C289.664 85.6332 288.034 80.8278 285.523 76.4745C283.011 72.1212 279.667 68.3052 275.681 65.2443C271.694 62.1835 267.144 59.9378 262.29 58.6355C257.436 57.3331 252.373 56.9997 247.39 57.6541C242.407 58.3085 237.601 59.938 233.248 62.4495L227.574 65.7263C216.858 56.5707 204.543 49.4732 191.249 44.7908V38.25C191.249 28.1055 187.219 18.3764 180.046 11.2032C172.873 4.0299 163.144 0 152.999 0C142.855 0 133.126 4.0299 125.953 11.2032C118.779 18.3764 114.749 28.1055 114.749 38.25V44.7908C101.456 49.49 89.1454 56.6049 78.4374 65.7772L72.7381 62.475C63.9462 57.4027 53.4994 56.0308 43.696 58.661C33.8925 61.2912 25.5354 67.7081 20.4631 76.5C15.3909 85.2919 14.0189 95.7387 16.6491 105.542C19.2793 115.346 25.6962 123.703 34.4881 128.775L40.1491 132.039C37.6005 145.905 37.6005 160.12 40.1491 173.987L34.4881 177.251C25.6962 182.323 19.2793 190.68 16.6491 200.483C14.0189 210.287 15.3909 220.734 20.4631 229.526C25.5354 238.317 33.8925 244.734 43.696 247.365C53.4994 249.995 63.9462 248.623 72.7381 243.55L78.4119 240.274C89.1316 249.431 101.451 256.528 114.749 261.209V267.75C114.749 277.895 118.779 287.624 125.953 294.797C133.126 301.97 142.855 306 152.999 306C163.144 306 172.873 301.97 180.046 294.797C187.219 287.624 191.249 277.895 191.249 267.75V261.209C204.543 256.51 216.853 249.395 227.561 240.223L233.261 243.512C242.053 248.585 252.499 249.956 262.303 247.326C272.106 244.696 280.463 238.279 285.536 229.487C290.608 220.695 291.98 210.249 289.35 200.445C286.719 190.642 280.303 182.285 271.511 177.212L271.498 177.225ZM239.011 129.081C243.329 144.726 243.329 161.248 239.011 176.893C238.257 179.617 238.429 182.513 239.5 185.128C240.571 187.742 242.48 189.927 244.927 191.339L258.748 199.321C261.678 201.012 263.816 203.797 264.693 207.064C265.569 210.332 265.112 213.814 263.421 216.744C261.73 219.674 258.945 221.812 255.677 222.688C252.41 223.565 248.928 223.107 245.998 221.416L232.151 213.41C229.702 211.991 226.85 211.428 224.045 211.809C221.241 212.189 218.642 213.493 216.66 215.513C205.312 227.099 191.014 235.365 175.312 239.42C172.571 240.124 170.143 241.721 168.409 243.957C166.675 246.194 165.735 248.944 165.737 251.774V267.75C165.737 271.132 164.393 274.375 162.002 276.766C159.611 279.157 156.368 280.5 152.987 280.5C149.605 280.5 146.362 279.157 143.971 276.766C141.58 274.375 140.237 271.132 140.237 267.75V251.787C140.238 248.957 139.298 246.207 137.564 243.97C135.831 241.733 133.402 240.137 130.661 239.432C114.958 235.361 100.665 227.077 89.3259 215.475C87.3436 213.455 84.7453 212.151 81.9405 211.77C79.1358 211.389 76.284 211.953 73.8346 213.371L60.0136 221.365C58.5631 222.216 56.9586 222.771 55.2926 222.999C53.6267 223.227 51.9321 223.123 50.3065 222.693C48.6809 222.263 47.1563 221.516 45.8206 220.494C44.4849 219.473 43.3644 218.198 42.5236 216.741C41.6829 215.285 41.1385 213.677 40.9217 212.01C40.705 210.342 40.8202 208.648 41.2608 207.026C41.7014 205.403 42.4586 203.883 43.4888 202.554C44.519 201.226 45.8019 200.114 47.2636 199.283L61.0846 191.301C63.532 189.889 65.441 187.704 66.5118 185.089C67.5826 182.475 67.7545 179.578 67.0006 176.855C62.6829 161.21 62.6829 144.688 67.0006 129.043C67.741 126.325 67.5608 123.44 66.4883 120.835C65.4157 118.231 63.5112 116.056 61.0719 114.648L47.2509 106.667C44.3208 104.976 42.1824 102.19 41.3061 98.9228C40.4297 95.6554 40.8873 92.1737 42.578 89.2436C44.2688 86.3135 47.0542 84.1751 50.3217 83.2988C53.5891 82.4225 57.0708 82.88 60.0009 84.5707L73.8474 92.5778C76.29 93.9995 79.1358 94.5694 81.9376 94.1979C84.7394 93.8263 87.3383 92.5343 89.3259 90.525C100.674 78.9396 114.972 70.6735 130.674 66.6187C133.423 65.9119 135.858 64.3078 137.593 62.0606C139.327 59.8134 140.262 57.0517 140.249 54.213V38.25C140.249 34.8685 141.593 31.6255 143.984 29.2344C146.375 26.8433 149.618 25.5 152.999 25.5C156.381 25.5 159.624 26.8433 162.015 29.2344C164.406 31.6255 165.749 34.8685 165.749 38.25V54.213C165.748 57.043 166.688 59.793 168.422 62.0298C170.155 64.2666 172.584 65.8631 175.325 66.5678C191.033 70.6369 205.33 78.921 216.673 90.525C218.655 92.5454 221.253 93.8488 224.058 94.2297C226.863 94.6106 229.715 94.0474 232.164 92.6287L245.985 84.6345C247.436 83.7841 249.04 83.229 250.706 83.0012C252.372 82.7735 254.067 82.8775 255.692 83.3072C257.318 83.737 258.842 84.4841 260.178 85.5055C261.514 86.5269 262.634 87.8024 263.475 89.2586C264.316 90.7148 264.86 92.3229 265.077 93.9903C265.294 95.6578 265.179 97.3516 264.738 98.9743C264.297 100.597 263.54 102.117 262.51 103.446C261.48 104.774 260.197 105.886 258.735 106.717L244.914 114.699C242.479 116.11 240.58 118.288 239.512 120.892C238.445 123.495 238.268 126.379 239.011 129.094V129.081Z"
              fill="#9E9E9E"/>
    </g>
    <defs>
        <clipPath id="clip0_854_79">
            <rect width="306" height="306" fill="white"/>
        </clipPath>
    </defs>
</svg>
