<svg width="266" height="266" viewBox="0 0 266 266" fill="none"
     xmlns="http://www.w3.org/2000/svg">
    <g clip-path="url(#clip0_854_45)">
        <path d="M266 133C266 139.118 261.035 144.083 254.917 144.083H199.5C193.382 144.083 188.417 139.118 188.417 133C188.417 126.882 193.382 121.917 199.5 121.917H254.917C261.035 121.917 266 126.882 266 133ZM254.917 221.667H199.5C193.382 221.667 188.417 226.632 188.417 232.75C188.417 238.868 193.382 243.833 199.5 243.833H254.917C261.035 243.833 266 238.868 266 232.75C266 226.632 261.035 221.667 254.917 221.667ZM110.833 44.3333H254.917C261.035 44.3333 266 39.368 266 33.25C266 27.132 261.035 22.1667 254.917 22.1667H110.833C104.715 22.1667 99.75 27.132 99.75 33.25C99.75 39.368 104.715 44.3333 110.833 44.3333ZM155.167 121.917V144.083C155.167 156.308 145.225 166.25 133 166.25H110.833C98.6084 166.25 88.6667 156.308 88.6667 144.083H44.3333V199.5C44.3333 211.725 54.2751 221.667 66.5 221.667H88.6667C88.6667 209.442 98.6084 199.5 110.833 199.5H133C145.225 199.5 155.167 209.442 155.167 221.667V243.833C155.167 256.058 145.225 266 133 266H110.833C98.6084 266 88.6667 256.058 88.6667 243.833H66.5C42.0502 243.833 22.1667 223.95 22.1667 199.5V66.5C9.94175 66.5 0 56.5582 0 44.3333V22.1667C0 9.94175 9.94175 0 22.1667 0H44.3333C56.5582 0 66.5 9.94175 66.5 22.1667V44.3333C66.5 56.5582 56.5582 66.5 44.3333 66.5V121.917H88.6667C88.6667 109.692 98.6084 99.75 110.833 99.75H133C145.225 99.75 155.167 109.692 155.167 121.917ZM22.1667 44.3333H44.3333V22.1667H22.1667V44.3333ZM110.833 243.833H133V221.667H110.833V243.833ZM133 121.917H110.833V144.083H133V121.917Z"
              fill="#9E9E9E"/>
    </g>
    <defs>
        <clipPath id="clip0_854_45">
            <rect width="266" height="266" fill="white"/>
        </clipPath>
    </defs>
</svg>
