<svg width="300" height="300" viewBox="0 0 300 300" fill="none"
     xmlns="http://www.w3.org/2000/svg">
    <g clip-path="url(#clip0_854_83)">
        <path d="M66.3879 111.2C59.0754 103.887 47.1879 103.887 39.8754 111.2L14.3379 136.738C7.02539 144.05 7.02539 155.938 14.3379 163.25L39.8754 188.787C47.1879 196.1 59.0754 196.1 66.3879 188.787C66.3879 188.787 92.4129 162.75 92.6379 162.487H117.45C122.838 180.537 139.6 193.737 159.375 193.737C179.15 193.737 195.913 180.537 201.3 162.487H225C225 176.275 236.213 187.487 250 187.487H275C288.788 187.487 300 176.275 300 162.487V137.487C300 123.7 288.788 112.487 275 112.487H250C236.213 112.487 225 123.7 225 137.487H201.3C195.913 119.437 179.15 106.237 159.375 106.237C139.6 106.237 122.838 119.437 117.45 137.487H92.6379C92.4129 137.225 66.3879 111.2 66.3879 111.2ZM275 137.5V162.5H250V137.5H275ZM53.1254 166.7L36.4254 150L53.1254 133.3L69.8254 150L53.1254 166.7ZM159.375 131.25C169.713 131.25 178.125 139.662 178.125 150C178.125 160.338 169.713 168.75 159.375 168.75C149.038 168.75 140.625 160.338 140.625 150C140.625 139.662 149.038 131.25 159.375 131.25ZM81.2504 0H118.75C142.875 0 162.5 19.625 162.5 43.75V62.5L172.413 52.5875C177.3 47.7 185.2 47.7 190.088 52.5875C192.525 55.025 193.75 58.225 193.75 61.425C193.75 64.625 192.525 67.825 190.088 70.2625L167.675 92.675C157.925 102.425 142.075 102.425 132.325 92.675L109.913 70.2625C105.025 65.375 105.025 57.475 109.913 52.5875C114.8 47.7 122.7 47.7 127.588 52.5875L137.5 62.5V43.75C137.5 33.4125 129.088 25 118.75 25H81.2504C70.9129 25 62.5004 33.4125 62.5004 43.75V75C62.5004 81.9 56.9004 87.5 50.0004 87.5C43.1004 87.5 37.5004 81.9 37.5004 75V43.75C37.5004 19.625 57.1254 0 81.2504 0ZM232.325 207.325C242.063 197.575 257.938 197.575 267.675 207.325L290.088 229.738C292.525 232.175 293.75 235.375 293.75 238.575C293.75 241.775 292.525 244.975 290.088 247.413C285.2 252.3 277.3 252.3 272.413 247.413L262.5 237.5V256.25C262.5 280.375 242.875 300 218.75 300H181.25C157.125 300 137.5 280.375 137.5 256.25V225C137.5 218.1 143.1 212.5 150 212.5C156.9 212.5 162.5 218.1 162.5 225V256.25C162.5 266.588 170.913 275 181.25 275H218.75C229.088 275 237.5 266.588 237.5 256.25V237.5L227.588 247.413C222.7 252.3 214.8 252.3 209.913 247.413C205.025 242.525 205.025 234.625 209.913 229.738L232.325 207.325Z"
              fill="#9E9E9E"/>
    </g>
    <defs>
        <clipPath id="clip0_854_83">
            <rect width="300" height="300" fill="white"
                  transform="matrix(0 -1 1 0 0 300)"/>
        </clipPath>
    </defs>
</svg>
